HIERARCHY
ROOT Hips
{
	OFFSET -0.001795 -0.223333 0.028219
	CHANNELS 6 Xposition Yposition Zposition Zrotation Yrotation Xrotation 
	JOINT LeftUpLeg
	{
		OFFSET 0.069520 -0.091406 -0.006815
		CHANNELS 3 Zrotation Yrotation Xrotation
		JOINT LeftLeg
		{
			OFFSET 0.034277 -0.375199 -0.004496
			CHANNELS 3 Zrotation Yrotation Xrotation
			JOINT LeftFoot
			{
				OFFSET -0.013596 -0.397961 -0.043693
				CHANNELS 3 Zrotation Yrotation Xrotation
				JOINT LeftToe
				{
					OFFSET 0.026358 -0.055791 0.119288
					CHANNELS 3 Zrotation Yrotation Xrotation
					End Site
					{
						OFFSET 0.000000 0.000000 0.000000
					}
				}
			}
		}
	}
	JOINT RightUpLeg
	{
		OFFSET -0.067670 -0.090522 -0.004320
		CHANNELS 3 Zrotation Yrotation Xrotation
		JOINT RightLeg
		{
			OFFSET -0.038290 -0.382569 -0.008850
			CHANNELS 3 Zrotation Yrotation Xrotation
			JOINT RightFoot
			{
				OFFSET 0.015774 -0.398415 -0.042312
				CHANNELS 3 Zrotation Yrotation Xrotation
				JOINT RightToe
				{
					OFFSET -0.025372 -0.048144 0.123348
					CHANNELS 3 Zrotation Yrotation Xrotation
					End Site
					{
						OFFSET 0.000000 0.000000 0.000000
					}
				}
			}
		}
	}
	JOINT Spine
	{
		OFFSET -0.002533 0.108963 -0.026696
		CHANNELS 3 Zrotation Yrotation Xrotation
		JOINT Spine1
		{
			OFFSET 0.005487 0.135180 0.001092
			CHANNELS 3 Zrotation Yrotation Xrotation
			JOINT Spine2
			{
				OFFSET 0.001457 0.052922 0.025425
				CHANNELS 3 Zrotation Yrotation Xrotation
				JOINT Neck
				{
					OFFSET -0.002778 0.213870 -0.042857
					CHANNELS 3 Zrotation Yrotation Xrotation
					JOINT Head
					{
						OFFSET 0.005152 0.064970 0.051349
						CHANNELS 3 Zrotation Yrotation Xrotation
						End Site
						{
							OFFSET 0.000000 0.000000 0.000000
						}
					}
				}
				JOINT LeftShoulder
				{
					OFFSET 0.078845 0.121749 -0.034090
					CHANNELS 3 Zrotation Yrotation Xrotation
					JOINT LeftArm
					{
						OFFSET 0.090977 0.030469 -0.008868
						CHANNELS 3 Zrotation Yrotation Xrotation
						JOINT LeftForeArm
						{
							OFFSET 0.259612 -0.012772 -0.027456
							CHANNELS 3 Zrotation Yrotation Xrotation
							JOINT LeftHand
							{
								OFFSET 0.249234 0.008986 -0.001171
								CHANNELS 3 Zrotation Yrotation Xrotation
								End Site
								{
									OFFSET 0.000000 0.000000 0.000000
								}
							}
						}
					}
				}
				JOINT RightShoulder
				{
					OFFSET -0.081759 0.118833 -0.038615
					CHANNELS 3 Zrotation Yrotation Xrotation
					JOINT RightArm
					{
						OFFSET -0.096012 0.032551 -0.009143
						CHANNELS 3 Zrotation Yrotation Xrotation
						JOINT RightForeArm
						{
							OFFSET -0.253742 -0.013329 -0.021401
							CHANNELS 3 Zrotation Yrotation Xrotation
							JOINT RightHand
							{
								OFFSET -0.255298 0.007772 -0.005559
								CHANNELS 3 Zrotation Yrotation Xrotation
								End Site
								{
									OFFSET 0.000000 0.000000 0.000000
								}
							}
						}
					}
				}
			}
		}
	}
}
MOTION
Frames: 6
Frame Time: 0.050000
0.042334 0.958042 0.105891 -1.634054 1.624650 3.590875 1.515815 -0.269317 -3.025879 5.388273 -0.533640 -0.465378 -4.595394 -5.468393 7.009594 0.000000 0.000000 0.000000 -3.182311 0.134078 -0.549237 0.339785 -0.055440 -0.518610 -0.257976 -3.439753 6.624973 0.000000 0.000000 0.000000 -3.225855 0.120253 -4.846248 -0.203835 0.074014 0.666979 3.250096 -2.954828 9.229639 -5.234450 4.280194 -1.862427 0.000000 0.000000 0.000000 3.497038 11.457552 -3.430103 -61.786041 -9.815438 -1.988299 -162.255850 -46.560102 152.678754 0.000000 0.000000 0.000000 -2.097187 -6.665116 -1.910973 57.888417 8.398653 -2.327772 162.567981 47.520318 147.392531 0.000000 0.000000 0.000000 
0.041901 0.957497 0.108458 -1.921082 1.585175 3.637536 1.707661 -0.268598 -3.019756 5.515180 -0.543917 -0.500703 -4.579704 -5.734080 6.501993 0.000000 0.000000 0.000000 -2.885777 0.103290 -0.229910 0.525273 -0.087299 -0.885817 -0.245118 -3.300445 6.316116 0.000000 0.000000 0.000000 -3.349949 0.123144 -5.343058 -0.209671 0.078811 0.607686 3.489090 -3.177781 9.270548 -5.320941 4.332944 -2.336176 0.000000 0.000000 0.000000 2.231319 12.509337 -3.992621 -63.582692 -10.004963 -1.852469 -163.710915 -46.096714 155.774072 0.000000 0.000000 0.000000 -0.787062 -6.968482 -2.228420 59.371346 8.294359 -2.466352 164.823244 48.207823 152.729976 0.000000 0.000000 0.000000 
0.041369 0.956952 0.110206 -2.097651 1.191320 4.047328 1.921634 -0.278066 -3.136919 5.685208 -0.534603 -0.842851 -4.414488 -5.460073 6.495038 0.000000 0.000000 0.000000 -2.673205 0.138866 -0.698298 0.641039 -0.107495 -1.155761 -0.370707 -3.637797 6.398862 0.000000 0.000000 0.000000 -3.429575 0.133963 -5.909838 -0.175514 0.059605 0.730621 3.558717 -3.198751 8.853232 -5.669486 4.578619 -2.988133 0.000000 0.000000 0.000000 0.756804 13.232477 -4.495228 -65.455452 -10.342498 -1.586967 -165.343175 -46.387843 159.691885 0.000000 0.000000 0.000000 0.832749 -7.480321 -2.692768 61.529149 8.176278 -2.586186 166.351816 48.642490 156.214084 0.000000 0.000000 0.000000 
0.040693 0.955886 0.111191 -2.288904 0.856151 4.105430 2.449729 -0.278622 -3.170208 5.661703 -0.535007 -0.833576 -3.844432 -4.793486 5.784154 0.000000 0.000000 0.000000 -2.394886 0.164302 -1.080427 0.693600 -0.106694 -0.992806 -0.218009 -2.953864 5.423210 0.000000 0.000000 0.000000 -3.737065 0.127732 -5.784187 0.113555 -0.065545 0.329610 3.706577 -3.256527 8.536177 -5.394122 4.329642 -3.628745 0.000000 0.000000 0.000000 -0.629285 13.735677 -4.921883 -66.602790 -10.819999 -1.242486 -166.584452 -47.224120 163.002984 0.000000 0.000000 0.000000 2.000706 -7.373068 -2.876998 63.739480 8.208083 -2.656059 167.044222 49.732838 158.162611 0.000000 0.000000 0.000000 
0.040027 0.955348 0.111339 -2.431677 0.985875 4.101376 2.739083 -0.276948 -3.152036 5.681592 -0.524488 -0.972900 -3.948773 -4.723822 6.254139 0.000000 0.000000 0.000000 -2.110221 0.185401 -1.418368 0.660988 -0.085702 -0.457260 -0.298236 -2.997402 5.100058 0.000000 0.000000 0.000000 -3.979452 0.119214 -5.668390 0.292425 -0.151429 0.329787 3.653510 -3.448356 8.210473 -5.293751 4.220148 -4.418365 0.000000 0.000000 0.000000 -1.236968 14.033411 -5.137606 -68.096144 -11.233203 -0.916954 -166.221971 -48.720121 162.929598 0.000000 0.000000 0.000000 2.911139 -7.574047 -3.129503 66.492464 8.195045 -2.758840 166.183598 51.880029 157.398862 0.000000 0.000000 0.000000 
0.039452 0.954735 0.111169 -2.594498 0.943275 4.231215 2.947318 -0.279937 -3.191556 5.915682 -0.541960 -1.034300 -3.740494 -4.500111 5.941862 0.000000 0.000000 0.000000 -1.622194 0.216822 -1.880411 0.649647 -0.075330 -0.185912 -0.245978 -2.532754 4.233479 0.000000 0.000000 0.000000 -4.099211 0.118286 -5.599371 0.275905 -0.137760 0.165626 3.691983 -3.446535 8.262776 -5.098005 4.072669 -4.253275 0.000000 0.000000 0.000000 -1.978401 14.092295 -5.295839 -68.495524 -10.558850 -1.353554 -164.753842 -49.673835 160.302869 0.000000 0.000000 0.000000 4.370427 -7.265609 -3.305745 68.102352 7.702369 -3.099705 164.096374 54.484332 154.678589 0.000000 0.000000 0.000000 
